%TF.GenerationSoftware,KiCad,Pcbnew,7.0.8*%
%TF.CreationDate,2023-10-19T22:14:58-07:00*%
%TF.ProjectId,Lab 2,4c616220-322e-46b6-9963-61645f706362,rev?*%
%TF.SameCoordinates,Original*%
%TF.FileFunction,Copper,L2,Bot*%
%TF.FilePolarity,Positive*%
%FSLAX46Y46*%
G04 Gerber Fmt 4.6, Leading zero omitted, Abs format (unit mm)*
G04 Created by KiCad (PCBNEW 7.0.8) date 2023-10-19 22:14:58*
%MOMM*%
%LPD*%
G01*
G04 APERTURE LIST*
G04 Aperture macros list*
%AMRoundRect*
0 Rectangle with rounded corners*
0 $1 Rounding radius*
0 $2 $3 $4 $5 $6 $7 $8 $9 X,Y pos of 4 corners*
0 Add a 4 corners polygon primitive as box body*
4,1,4,$2,$3,$4,$5,$6,$7,$8,$9,$2,$3,0*
0 Add four circle primitives for the rounded corners*
1,1,$1+$1,$2,$3*
1,1,$1+$1,$4,$5*
1,1,$1+$1,$6,$7*
1,1,$1+$1,$8,$9*
0 Add four rect primitives between the rounded corners*
20,1,$1+$1,$2,$3,$4,$5,0*
20,1,$1+$1,$4,$5,$6,$7,0*
20,1,$1+$1,$6,$7,$8,$9,0*
20,1,$1+$1,$8,$9,$2,$3,0*%
G04 Aperture macros list end*
%TA.AperFunction,ComponentPad*%
%ADD10RoundRect,0.250000X-0.600000X-0.750000X0.600000X-0.750000X0.600000X0.750000X-0.600000X0.750000X0*%
%TD*%
%TA.AperFunction,ComponentPad*%
%ADD11O,1.700000X2.000000*%
%TD*%
%TA.AperFunction,ViaPad*%
%ADD12C,0.800000*%
%TD*%
G04 APERTURE END LIST*
D10*
%TO.P,J1,1,Pin_1*%
%TO.N,+9V*%
X94020000Y-73660000D03*
D11*
%TO.P,J1,2,Pin_2*%
%TO.N,GND*%
X96520000Y-73660000D03*
%TD*%
D12*
%TO.N,GND*%
X78740000Y-96520000D03*
X81280000Y-101600000D03*
X77637500Y-91440000D03*
X96520000Y-93980000D03*
X96520000Y-76200000D03*
%TD*%
%TA.AperFunction,Conductor*%
%TO.N,GND*%
G36*
X119322539Y-66060185D02*
G01*
X119368294Y-66112989D01*
X119379500Y-66164500D01*
X119379500Y-111635500D01*
X119359815Y-111702539D01*
X119307011Y-111748294D01*
X119255500Y-111759500D01*
X71244500Y-111759500D01*
X71177461Y-111739815D01*
X71131706Y-111687011D01*
X71120500Y-111635500D01*
X71120500Y-106811187D01*
X74449500Y-106811187D01*
X74469794Y-106945823D01*
X74488604Y-107070615D01*
X74488605Y-107070617D01*
X74488606Y-107070623D01*
X74565938Y-107321326D01*
X74679767Y-107557696D01*
X74679768Y-107557697D01*
X74679770Y-107557700D01*
X74679772Y-107557704D01*
X74827567Y-107774479D01*
X75006014Y-107966801D01*
X75006018Y-107966804D01*
X75006019Y-107966805D01*
X75211143Y-108130386D01*
X75438357Y-108261568D01*
X75682584Y-108357420D01*
X75938370Y-108415802D01*
X75938376Y-108415802D01*
X75938379Y-108415803D01*
X76134500Y-108430500D01*
X76134506Y-108430500D01*
X76265500Y-108430500D01*
X76461620Y-108415803D01*
X76461622Y-108415802D01*
X76461630Y-108415802D01*
X76717416Y-108357420D01*
X76961643Y-108261568D01*
X77188857Y-108130386D01*
X77393981Y-107966805D01*
X77572433Y-107774479D01*
X77720228Y-107557704D01*
X77834063Y-107321323D01*
X77911396Y-107070615D01*
X77950499Y-106811187D01*
X112549500Y-106811187D01*
X112569794Y-106945823D01*
X112588604Y-107070615D01*
X112588605Y-107070617D01*
X112588606Y-107070623D01*
X112665938Y-107321326D01*
X112779767Y-107557696D01*
X112779768Y-107557697D01*
X112779770Y-107557700D01*
X112779772Y-107557704D01*
X112927567Y-107774479D01*
X113106014Y-107966801D01*
X113106018Y-107966804D01*
X113106019Y-107966805D01*
X113311143Y-108130386D01*
X113538357Y-108261568D01*
X113782584Y-108357420D01*
X114038370Y-108415802D01*
X114038376Y-108415802D01*
X114038379Y-108415803D01*
X114234500Y-108430500D01*
X114234506Y-108430500D01*
X114365500Y-108430500D01*
X114561620Y-108415803D01*
X114561622Y-108415802D01*
X114561630Y-108415802D01*
X114817416Y-108357420D01*
X115061643Y-108261568D01*
X115288857Y-108130386D01*
X115493981Y-107966805D01*
X115672433Y-107774479D01*
X115820228Y-107557704D01*
X115934063Y-107321323D01*
X116011396Y-107070615D01*
X116050500Y-106811182D01*
X116050500Y-106548818D01*
X116011396Y-106289385D01*
X115934063Y-106038677D01*
X115922121Y-106013880D01*
X115820232Y-105802303D01*
X115820231Y-105802302D01*
X115820230Y-105802301D01*
X115820228Y-105802296D01*
X115672433Y-105585521D01*
X115662441Y-105574753D01*
X115493985Y-105393198D01*
X115454533Y-105361736D01*
X115288857Y-105229614D01*
X115061643Y-105098432D01*
X114817416Y-105002580D01*
X114817411Y-105002578D01*
X114817402Y-105002576D01*
X114599818Y-104952914D01*
X114561630Y-104944198D01*
X114561629Y-104944197D01*
X114561625Y-104944197D01*
X114561620Y-104944196D01*
X114365500Y-104929500D01*
X114365494Y-104929500D01*
X114234506Y-104929500D01*
X114234500Y-104929500D01*
X114038379Y-104944196D01*
X114038374Y-104944197D01*
X113782597Y-105002576D01*
X113782578Y-105002582D01*
X113538356Y-105098432D01*
X113311143Y-105229614D01*
X113106014Y-105393198D01*
X112927567Y-105585520D01*
X112779768Y-105802302D01*
X112779767Y-105802303D01*
X112665938Y-106038673D01*
X112588606Y-106289376D01*
X112588605Y-106289381D01*
X112588604Y-106289385D01*
X112573853Y-106387247D01*
X112549500Y-106548812D01*
X112549500Y-106811187D01*
X77950499Y-106811187D01*
X77950500Y-106811182D01*
X77950500Y-106548818D01*
X77911396Y-106289385D01*
X77834063Y-106038677D01*
X77822121Y-106013880D01*
X77720232Y-105802303D01*
X77720231Y-105802302D01*
X77720230Y-105802301D01*
X77720228Y-105802296D01*
X77572433Y-105585521D01*
X77562441Y-105574753D01*
X77393985Y-105393198D01*
X77354533Y-105361736D01*
X77188857Y-105229614D01*
X76961643Y-105098432D01*
X76717416Y-105002580D01*
X76717411Y-105002578D01*
X76717402Y-105002576D01*
X76499818Y-104952914D01*
X76461630Y-104944198D01*
X76461629Y-104944197D01*
X76461625Y-104944197D01*
X76461620Y-104944196D01*
X76265500Y-104929500D01*
X76265494Y-104929500D01*
X76134506Y-104929500D01*
X76134500Y-104929500D01*
X75938379Y-104944196D01*
X75938374Y-104944197D01*
X75682597Y-105002576D01*
X75682578Y-105002582D01*
X75438356Y-105098432D01*
X75211143Y-105229614D01*
X75006014Y-105393198D01*
X74827567Y-105585520D01*
X74679768Y-105802302D01*
X74679767Y-105802303D01*
X74565938Y-106038673D01*
X74488606Y-106289376D01*
X74488605Y-106289381D01*
X74488604Y-106289385D01*
X74473853Y-106387247D01*
X74449500Y-106548812D01*
X74449500Y-106811187D01*
X71120500Y-106811187D01*
X71120500Y-74460001D01*
X92669500Y-74460001D01*
X92669501Y-74460018D01*
X92680000Y-74562796D01*
X92680001Y-74562799D01*
X92714031Y-74665494D01*
X92735186Y-74729334D01*
X92827288Y-74878656D01*
X92951344Y-75002712D01*
X93100666Y-75094814D01*
X93267203Y-75149999D01*
X93369991Y-75160500D01*
X94670008Y-75160499D01*
X94772797Y-75149999D01*
X94939334Y-75094814D01*
X95088656Y-75002712D01*
X95212712Y-74878656D01*
X95304814Y-74729334D01*
X95304814Y-74729333D01*
X95308448Y-74723442D01*
X95360396Y-74676717D01*
X95429358Y-74665494D01*
X95493441Y-74693337D01*
X95501668Y-74700856D01*
X95648921Y-74848108D01*
X95842421Y-74983600D01*
X96056507Y-75083429D01*
X96056516Y-75083433D01*
X96270000Y-75140634D01*
X96270000Y-74095501D01*
X96377685Y-74144680D01*
X96484237Y-74160000D01*
X96555763Y-74160000D01*
X96662315Y-74144680D01*
X96770000Y-74095501D01*
X96770000Y-75140633D01*
X96983483Y-75083433D01*
X96983492Y-75083429D01*
X97197577Y-74983600D01*
X97197579Y-74983599D01*
X97391073Y-74848113D01*
X97391079Y-74848108D01*
X97558108Y-74681079D01*
X97558113Y-74681073D01*
X97693599Y-74487579D01*
X97693600Y-74487577D01*
X97793429Y-74273492D01*
X97793433Y-74273483D01*
X97854567Y-74045326D01*
X97854569Y-74045315D01*
X97866407Y-73910000D01*
X96953686Y-73910000D01*
X96979493Y-73869844D01*
X97020000Y-73731889D01*
X97020000Y-73588111D01*
X96979493Y-73450156D01*
X96953686Y-73410000D01*
X97866407Y-73410000D01*
X97866407Y-73409999D01*
X97854569Y-73274684D01*
X97854567Y-73274673D01*
X97793433Y-73046516D01*
X97793429Y-73046507D01*
X97693600Y-72832422D01*
X97693599Y-72832420D01*
X97558113Y-72638926D01*
X97558108Y-72638920D01*
X97391082Y-72471894D01*
X97197578Y-72336399D01*
X96983492Y-72236570D01*
X96983486Y-72236567D01*
X96770000Y-72179364D01*
X96770000Y-73224498D01*
X96662315Y-73175320D01*
X96555763Y-73160000D01*
X96484237Y-73160000D01*
X96377685Y-73175320D01*
X96270000Y-73224498D01*
X96270000Y-72179364D01*
X96269999Y-72179364D01*
X96056513Y-72236567D01*
X96056507Y-72236570D01*
X95842422Y-72336399D01*
X95842420Y-72336400D01*
X95648926Y-72471886D01*
X95501668Y-72619144D01*
X95440345Y-72652628D01*
X95370653Y-72647644D01*
X95314720Y-72605772D01*
X95308448Y-72596558D01*
X95292304Y-72570385D01*
X95212712Y-72441344D01*
X95088656Y-72317288D01*
X94939334Y-72225186D01*
X94772797Y-72170001D01*
X94772795Y-72170000D01*
X94670010Y-72159500D01*
X93369998Y-72159500D01*
X93369981Y-72159501D01*
X93267203Y-72170000D01*
X93267200Y-72170001D01*
X93100668Y-72225185D01*
X93100663Y-72225187D01*
X92951342Y-72317289D01*
X92827289Y-72441342D01*
X92735187Y-72590663D01*
X92735185Y-72590668D01*
X92730180Y-72605772D01*
X92680001Y-72757203D01*
X92680001Y-72757204D01*
X92680000Y-72757204D01*
X92669500Y-72859983D01*
X92669500Y-74460001D01*
X71120500Y-74460001D01*
X71120500Y-71251187D01*
X74449500Y-71251187D01*
X74469794Y-71385823D01*
X74488604Y-71510615D01*
X74488605Y-71510617D01*
X74488606Y-71510623D01*
X74565938Y-71761326D01*
X74679767Y-71997696D01*
X74679768Y-71997697D01*
X74679770Y-71997700D01*
X74679772Y-71997704D01*
X74803626Y-72179364D01*
X74827567Y-72214479D01*
X75006014Y-72406801D01*
X75006018Y-72406804D01*
X75006019Y-72406805D01*
X75211143Y-72570386D01*
X75438357Y-72701568D01*
X75682584Y-72797420D01*
X75938370Y-72855802D01*
X75938376Y-72855802D01*
X75938379Y-72855803D01*
X76134500Y-72870500D01*
X76134506Y-72870500D01*
X76265500Y-72870500D01*
X76461620Y-72855803D01*
X76461622Y-72855802D01*
X76461630Y-72855802D01*
X76717416Y-72797420D01*
X76961643Y-72701568D01*
X77188857Y-72570386D01*
X77393981Y-72406805D01*
X77572433Y-72214479D01*
X77720228Y-71997704D01*
X77834063Y-71761323D01*
X77911396Y-71510615D01*
X77950499Y-71251187D01*
X112549500Y-71251187D01*
X112569794Y-71385823D01*
X112588604Y-71510615D01*
X112588605Y-71510617D01*
X112588606Y-71510623D01*
X112665938Y-71761326D01*
X112779767Y-71997696D01*
X112779768Y-71997697D01*
X112779770Y-71997700D01*
X112779772Y-71997704D01*
X112903626Y-72179364D01*
X112927567Y-72214479D01*
X113106014Y-72406801D01*
X113106018Y-72406804D01*
X113106019Y-72406805D01*
X113311143Y-72570386D01*
X113538357Y-72701568D01*
X113782584Y-72797420D01*
X114038370Y-72855802D01*
X114038376Y-72855802D01*
X114038379Y-72855803D01*
X114234500Y-72870500D01*
X114234506Y-72870500D01*
X114365500Y-72870500D01*
X114561620Y-72855803D01*
X114561622Y-72855802D01*
X114561630Y-72855802D01*
X114817416Y-72797420D01*
X115061643Y-72701568D01*
X115288857Y-72570386D01*
X115493981Y-72406805D01*
X115672433Y-72214479D01*
X115820228Y-71997704D01*
X115934063Y-71761323D01*
X116011396Y-71510615D01*
X116050500Y-71251182D01*
X116050500Y-70988818D01*
X116011396Y-70729385D01*
X115934063Y-70478677D01*
X115922121Y-70453880D01*
X115820232Y-70242303D01*
X115820231Y-70242302D01*
X115820230Y-70242301D01*
X115820228Y-70242296D01*
X115672433Y-70025521D01*
X115662441Y-70014753D01*
X115493985Y-69833198D01*
X115454533Y-69801736D01*
X115288857Y-69669614D01*
X115061643Y-69538432D01*
X114817416Y-69442580D01*
X114817411Y-69442578D01*
X114817402Y-69442576D01*
X114599818Y-69392914D01*
X114561630Y-69384198D01*
X114561629Y-69384197D01*
X114561625Y-69384197D01*
X114561620Y-69384196D01*
X114365500Y-69369500D01*
X114365494Y-69369500D01*
X114234506Y-69369500D01*
X114234500Y-69369500D01*
X114038379Y-69384196D01*
X114038374Y-69384197D01*
X113782597Y-69442576D01*
X113782578Y-69442582D01*
X113538356Y-69538432D01*
X113311143Y-69669614D01*
X113106014Y-69833198D01*
X112927567Y-70025520D01*
X112779768Y-70242302D01*
X112779767Y-70242303D01*
X112665938Y-70478673D01*
X112588606Y-70729376D01*
X112588605Y-70729381D01*
X112588604Y-70729385D01*
X112573853Y-70827247D01*
X112549500Y-70988812D01*
X112549500Y-71251187D01*
X77950499Y-71251187D01*
X77950500Y-71251182D01*
X77950500Y-70988818D01*
X77911396Y-70729385D01*
X77834063Y-70478677D01*
X77822121Y-70453880D01*
X77720232Y-70242303D01*
X77720231Y-70242302D01*
X77720230Y-70242301D01*
X77720228Y-70242296D01*
X77572433Y-70025521D01*
X77562441Y-70014753D01*
X77393985Y-69833198D01*
X77354533Y-69801736D01*
X77188857Y-69669614D01*
X76961643Y-69538432D01*
X76717416Y-69442580D01*
X76717411Y-69442578D01*
X76717402Y-69442576D01*
X76499818Y-69392914D01*
X76461630Y-69384198D01*
X76461629Y-69384197D01*
X76461625Y-69384197D01*
X76461620Y-69384196D01*
X76265500Y-69369500D01*
X76265494Y-69369500D01*
X76134506Y-69369500D01*
X76134500Y-69369500D01*
X75938379Y-69384196D01*
X75938374Y-69384197D01*
X75682597Y-69442576D01*
X75682578Y-69442582D01*
X75438356Y-69538432D01*
X75211143Y-69669614D01*
X75006014Y-69833198D01*
X74827567Y-70025520D01*
X74679768Y-70242302D01*
X74679767Y-70242303D01*
X74565938Y-70478673D01*
X74488606Y-70729376D01*
X74488605Y-70729381D01*
X74488604Y-70729385D01*
X74473853Y-70827247D01*
X74449500Y-70988812D01*
X74449500Y-71251187D01*
X71120500Y-71251187D01*
X71120500Y-66164500D01*
X71140185Y-66097461D01*
X71192989Y-66051706D01*
X71244500Y-66040500D01*
X119255500Y-66040500D01*
X119322539Y-66060185D01*
G37*
%TD.AperFunction*%
%TD*%
M02*
