%TF.GenerationSoftware,KiCad,Pcbnew,7.0.8*%
%TF.CreationDate,2023-10-19T22:14:58-07:00*%
%TF.ProjectId,Lab 2,4c616220-322e-46b6-9963-61645f706362,rev?*%
%TF.SameCoordinates,Original*%
%TF.FileFunction,Legend,Top*%
%TF.FilePolarity,Positive*%
%FSLAX46Y46*%
G04 Gerber Fmt 4.6, Leading zero omitted, Abs format (unit mm)*
G04 Created by KiCad (PCBNEW 7.0.8) date 2023-10-19 22:14:58*
%MOMM*%
%LPD*%
G01*
G04 APERTURE LIST*
%ADD10C,0.150000*%
%ADD11C,0.120000*%
G04 APERTURE END LIST*
D10*
X116709819Y-93643220D02*
X115709819Y-93643220D01*
X116709819Y-93071792D02*
X116138390Y-93500363D01*
X115709819Y-93071792D02*
X116281247Y-93643220D01*
X116709819Y-92214649D02*
X116186009Y-92214649D01*
X116186009Y-92214649D02*
X116090771Y-92262268D01*
X116090771Y-92262268D02*
X116043152Y-92357506D01*
X116043152Y-92357506D02*
X116043152Y-92547982D01*
X116043152Y-92547982D02*
X116090771Y-92643220D01*
X116662200Y-92214649D02*
X116709819Y-92309887D01*
X116709819Y-92309887D02*
X116709819Y-92547982D01*
X116709819Y-92547982D02*
X116662200Y-92643220D01*
X116662200Y-92643220D02*
X116566961Y-92690839D01*
X116566961Y-92690839D02*
X116471723Y-92690839D01*
X116471723Y-92690839D02*
X116376485Y-92643220D01*
X116376485Y-92643220D02*
X116328866Y-92547982D01*
X116328866Y-92547982D02*
X116328866Y-92309887D01*
X116328866Y-92309887D02*
X116281247Y-92214649D01*
X116709819Y-91738458D02*
X116043152Y-91738458D01*
X115709819Y-91738458D02*
X115757438Y-91786077D01*
X115757438Y-91786077D02*
X115805057Y-91738458D01*
X115805057Y-91738458D02*
X115757438Y-91690839D01*
X115757438Y-91690839D02*
X115709819Y-91738458D01*
X115709819Y-91738458D02*
X115805057Y-91738458D01*
X116709819Y-90833697D02*
X116186009Y-90833697D01*
X116186009Y-90833697D02*
X116090771Y-90881316D01*
X116090771Y-90881316D02*
X116043152Y-90976554D01*
X116043152Y-90976554D02*
X116043152Y-91167030D01*
X116043152Y-91167030D02*
X116090771Y-91262268D01*
X116662200Y-90833697D02*
X116709819Y-90928935D01*
X116709819Y-90928935D02*
X116709819Y-91167030D01*
X116709819Y-91167030D02*
X116662200Y-91262268D01*
X116662200Y-91262268D02*
X116566961Y-91309887D01*
X116566961Y-91309887D02*
X116471723Y-91309887D01*
X116471723Y-91309887D02*
X116376485Y-91262268D01*
X116376485Y-91262268D02*
X116328866Y-91167030D01*
X116328866Y-91167030D02*
X116328866Y-90928935D01*
X116328866Y-90928935D02*
X116281247Y-90833697D01*
X116186009Y-89262268D02*
X116233628Y-89119411D01*
X116233628Y-89119411D02*
X116281247Y-89071792D01*
X116281247Y-89071792D02*
X116376485Y-89024173D01*
X116376485Y-89024173D02*
X116519342Y-89024173D01*
X116519342Y-89024173D02*
X116614580Y-89071792D01*
X116614580Y-89071792D02*
X116662200Y-89119411D01*
X116662200Y-89119411D02*
X116709819Y-89214649D01*
X116709819Y-89214649D02*
X116709819Y-89595601D01*
X116709819Y-89595601D02*
X115709819Y-89595601D01*
X115709819Y-89595601D02*
X115709819Y-89262268D01*
X115709819Y-89262268D02*
X115757438Y-89167030D01*
X115757438Y-89167030D02*
X115805057Y-89119411D01*
X115805057Y-89119411D02*
X115900295Y-89071792D01*
X115900295Y-89071792D02*
X115995533Y-89071792D01*
X115995533Y-89071792D02*
X116090771Y-89119411D01*
X116090771Y-89119411D02*
X116138390Y-89167030D01*
X116138390Y-89167030D02*
X116186009Y-89262268D01*
X116186009Y-89262268D02*
X116186009Y-89595601D01*
X116043152Y-88167030D02*
X116709819Y-88167030D01*
X116043152Y-88595601D02*
X116566961Y-88595601D01*
X116566961Y-88595601D02*
X116662200Y-88547982D01*
X116662200Y-88547982D02*
X116709819Y-88452744D01*
X116709819Y-88452744D02*
X116709819Y-88309887D01*
X116709819Y-88309887D02*
X116662200Y-88214649D01*
X116662200Y-88214649D02*
X116614580Y-88167030D01*
X116709819Y-87690839D02*
X116043152Y-87690839D01*
X116233628Y-87690839D02*
X116138390Y-87643220D01*
X116138390Y-87643220D02*
X116090771Y-87595601D01*
X116090771Y-87595601D02*
X116043152Y-87500363D01*
X116043152Y-87500363D02*
X116043152Y-87405125D01*
X116043152Y-86643220D02*
X116852676Y-86643220D01*
X116852676Y-86643220D02*
X116947914Y-86690839D01*
X116947914Y-86690839D02*
X116995533Y-86738458D01*
X116995533Y-86738458D02*
X117043152Y-86833696D01*
X117043152Y-86833696D02*
X117043152Y-86976553D01*
X117043152Y-86976553D02*
X116995533Y-87071791D01*
X116662200Y-86643220D02*
X116709819Y-86738458D01*
X116709819Y-86738458D02*
X116709819Y-86928934D01*
X116709819Y-86928934D02*
X116662200Y-87024172D01*
X116662200Y-87024172D02*
X116614580Y-87071791D01*
X116614580Y-87071791D02*
X116519342Y-87119410D01*
X116519342Y-87119410D02*
X116233628Y-87119410D01*
X116233628Y-87119410D02*
X116138390Y-87071791D01*
X116138390Y-87071791D02*
X116090771Y-87024172D01*
X116090771Y-87024172D02*
X116043152Y-86928934D01*
X116043152Y-86928934D02*
X116043152Y-86738458D01*
X116043152Y-86738458D02*
X116090771Y-86643220D01*
X116709819Y-86024172D02*
X116662200Y-86119410D01*
X116662200Y-86119410D02*
X116614580Y-86167029D01*
X116614580Y-86167029D02*
X116519342Y-86214648D01*
X116519342Y-86214648D02*
X116233628Y-86214648D01*
X116233628Y-86214648D02*
X116138390Y-86167029D01*
X116138390Y-86167029D02*
X116090771Y-86119410D01*
X116090771Y-86119410D02*
X116043152Y-86024172D01*
X116043152Y-86024172D02*
X116043152Y-85881315D01*
X116043152Y-85881315D02*
X116090771Y-85786077D01*
X116090771Y-85786077D02*
X116138390Y-85738458D01*
X116138390Y-85738458D02*
X116233628Y-85690839D01*
X116233628Y-85690839D02*
X116519342Y-85690839D01*
X116519342Y-85690839D02*
X116614580Y-85738458D01*
X116614580Y-85738458D02*
X116662200Y-85786077D01*
X116662200Y-85786077D02*
X116709819Y-85881315D01*
X116709819Y-85881315D02*
X116709819Y-86024172D01*
X116662200Y-85309886D02*
X116709819Y-85214648D01*
X116709819Y-85214648D02*
X116709819Y-85024172D01*
X116709819Y-85024172D02*
X116662200Y-84928934D01*
X116662200Y-84928934D02*
X116566961Y-84881315D01*
X116566961Y-84881315D02*
X116519342Y-84881315D01*
X116519342Y-84881315D02*
X116424104Y-84928934D01*
X116424104Y-84928934D02*
X116376485Y-85024172D01*
X116376485Y-85024172D02*
X116376485Y-85167029D01*
X116376485Y-85167029D02*
X116328866Y-85262267D01*
X116328866Y-85262267D02*
X116233628Y-85309886D01*
X116233628Y-85309886D02*
X116186009Y-85309886D01*
X116186009Y-85309886D02*
X116090771Y-85262267D01*
X116090771Y-85262267D02*
X116043152Y-85167029D01*
X116043152Y-85167029D02*
X116043152Y-85024172D01*
X116043152Y-85024172D02*
X116090771Y-84928934D01*
X83653333Y-106179580D02*
X83605714Y-106227200D01*
X83605714Y-106227200D02*
X83462857Y-106274819D01*
X83462857Y-106274819D02*
X83367619Y-106274819D01*
X83367619Y-106274819D02*
X83224762Y-106227200D01*
X83224762Y-106227200D02*
X83129524Y-106131961D01*
X83129524Y-106131961D02*
X83081905Y-106036723D01*
X83081905Y-106036723D02*
X83034286Y-105846247D01*
X83034286Y-105846247D02*
X83034286Y-105703390D01*
X83034286Y-105703390D02*
X83081905Y-105512914D01*
X83081905Y-105512914D02*
X83129524Y-105417676D01*
X83129524Y-105417676D02*
X83224762Y-105322438D01*
X83224762Y-105322438D02*
X83367619Y-105274819D01*
X83367619Y-105274819D02*
X83462857Y-105274819D01*
X83462857Y-105274819D02*
X83605714Y-105322438D01*
X83605714Y-105322438D02*
X83653333Y-105370057D01*
X84034286Y-105370057D02*
X84081905Y-105322438D01*
X84081905Y-105322438D02*
X84177143Y-105274819D01*
X84177143Y-105274819D02*
X84415238Y-105274819D01*
X84415238Y-105274819D02*
X84510476Y-105322438D01*
X84510476Y-105322438D02*
X84558095Y-105370057D01*
X84558095Y-105370057D02*
X84605714Y-105465295D01*
X84605714Y-105465295D02*
X84605714Y-105560533D01*
X84605714Y-105560533D02*
X84558095Y-105703390D01*
X84558095Y-105703390D02*
X83986667Y-106274819D01*
X83986667Y-106274819D02*
X84605714Y-106274819D01*
X74866666Y-102054819D02*
X74533333Y-101578628D01*
X74295238Y-102054819D02*
X74295238Y-101054819D01*
X74295238Y-101054819D02*
X74676190Y-101054819D01*
X74676190Y-101054819D02*
X74771428Y-101102438D01*
X74771428Y-101102438D02*
X74819047Y-101150057D01*
X74819047Y-101150057D02*
X74866666Y-101245295D01*
X74866666Y-101245295D02*
X74866666Y-101388152D01*
X74866666Y-101388152D02*
X74819047Y-101483390D01*
X74819047Y-101483390D02*
X74771428Y-101531009D01*
X74771428Y-101531009D02*
X74676190Y-101578628D01*
X74676190Y-101578628D02*
X74295238Y-101578628D01*
X75295238Y-101531009D02*
X75628571Y-101531009D01*
X75771428Y-102054819D02*
X75295238Y-102054819D01*
X75295238Y-102054819D02*
X75295238Y-101054819D01*
X75295238Y-101054819D02*
X75771428Y-101054819D01*
X76533333Y-101531009D02*
X76200000Y-101531009D01*
X76200000Y-102054819D02*
X76200000Y-101054819D01*
X76200000Y-101054819D02*
X76676190Y-101054819D01*
X77200000Y-101054819D02*
X77200000Y-101292914D01*
X76961905Y-101197676D02*
X77200000Y-101292914D01*
X77200000Y-101292914D02*
X77438095Y-101197676D01*
X77057143Y-101483390D02*
X77200000Y-101292914D01*
X77200000Y-101292914D02*
X77342857Y-101483390D01*
X77961905Y-101054819D02*
X77961905Y-101292914D01*
X77723810Y-101197676D02*
X77961905Y-101292914D01*
X77961905Y-101292914D02*
X78200000Y-101197676D01*
X77819048Y-101483390D02*
X77961905Y-101292914D01*
X77961905Y-101292914D02*
X78104762Y-101483390D01*
X83384819Y-86526666D02*
X82908628Y-86859999D01*
X83384819Y-87098094D02*
X82384819Y-87098094D01*
X82384819Y-87098094D02*
X82384819Y-86717142D01*
X82384819Y-86717142D02*
X82432438Y-86621904D01*
X82432438Y-86621904D02*
X82480057Y-86574285D01*
X82480057Y-86574285D02*
X82575295Y-86526666D01*
X82575295Y-86526666D02*
X82718152Y-86526666D01*
X82718152Y-86526666D02*
X82813390Y-86574285D01*
X82813390Y-86574285D02*
X82861009Y-86621904D01*
X82861009Y-86621904D02*
X82908628Y-86717142D01*
X82908628Y-86717142D02*
X82908628Y-87098094D01*
X82480057Y-86145713D02*
X82432438Y-86098094D01*
X82432438Y-86098094D02*
X82384819Y-86002856D01*
X82384819Y-86002856D02*
X82384819Y-85764761D01*
X82384819Y-85764761D02*
X82432438Y-85669523D01*
X82432438Y-85669523D02*
X82480057Y-85621904D01*
X82480057Y-85621904D02*
X82575295Y-85574285D01*
X82575295Y-85574285D02*
X82670533Y-85574285D01*
X82670533Y-85574285D02*
X82813390Y-85621904D01*
X82813390Y-85621904D02*
X83384819Y-86193332D01*
X83384819Y-86193332D02*
X83384819Y-85574285D01*
X83653333Y-83384819D02*
X83320000Y-82908628D01*
X83081905Y-83384819D02*
X83081905Y-82384819D01*
X83081905Y-82384819D02*
X83462857Y-82384819D01*
X83462857Y-82384819D02*
X83558095Y-82432438D01*
X83558095Y-82432438D02*
X83605714Y-82480057D01*
X83605714Y-82480057D02*
X83653333Y-82575295D01*
X83653333Y-82575295D02*
X83653333Y-82718152D01*
X83653333Y-82718152D02*
X83605714Y-82813390D01*
X83605714Y-82813390D02*
X83558095Y-82861009D01*
X83558095Y-82861009D02*
X83462857Y-82908628D01*
X83462857Y-82908628D02*
X83081905Y-82908628D01*
X84605714Y-83384819D02*
X84034286Y-83384819D01*
X84320000Y-83384819D02*
X84320000Y-82384819D01*
X84320000Y-82384819D02*
X84224762Y-82527676D01*
X84224762Y-82527676D02*
X84129524Y-82622914D01*
X84129524Y-82622914D02*
X84034286Y-82670533D01*
X112966666Y-103134819D02*
X112633333Y-102658628D01*
X112395238Y-103134819D02*
X112395238Y-102134819D01*
X112395238Y-102134819D02*
X112776190Y-102134819D01*
X112776190Y-102134819D02*
X112871428Y-102182438D01*
X112871428Y-102182438D02*
X112919047Y-102230057D01*
X112919047Y-102230057D02*
X112966666Y-102325295D01*
X112966666Y-102325295D02*
X112966666Y-102468152D01*
X112966666Y-102468152D02*
X112919047Y-102563390D01*
X112919047Y-102563390D02*
X112871428Y-102611009D01*
X112871428Y-102611009D02*
X112776190Y-102658628D01*
X112776190Y-102658628D02*
X112395238Y-102658628D01*
X113395238Y-102611009D02*
X113728571Y-102611009D01*
X113871428Y-103134819D02*
X113395238Y-103134819D01*
X113395238Y-103134819D02*
X113395238Y-102134819D01*
X113395238Y-102134819D02*
X113871428Y-102134819D01*
X114633333Y-102611009D02*
X114300000Y-102611009D01*
X114300000Y-103134819D02*
X114300000Y-102134819D01*
X114300000Y-102134819D02*
X114776190Y-102134819D01*
X115300000Y-102134819D02*
X115300000Y-102372914D01*
X115061905Y-102277676D02*
X115300000Y-102372914D01*
X115300000Y-102372914D02*
X115538095Y-102277676D01*
X115157143Y-102563390D02*
X115300000Y-102372914D01*
X115300000Y-102372914D02*
X115442857Y-102563390D01*
X116061905Y-102134819D02*
X116061905Y-102372914D01*
X115823810Y-102277676D02*
X116061905Y-102372914D01*
X116061905Y-102372914D02*
X116300000Y-102277676D01*
X115919048Y-102563390D02*
X116061905Y-102372914D01*
X116061905Y-102372914D02*
X116204762Y-102563390D01*
X90701905Y-82454819D02*
X90701905Y-81454819D01*
X90701905Y-81454819D02*
X90940000Y-81454819D01*
X90940000Y-81454819D02*
X91082857Y-81502438D01*
X91082857Y-81502438D02*
X91178095Y-81597676D01*
X91178095Y-81597676D02*
X91225714Y-81692914D01*
X91225714Y-81692914D02*
X91273333Y-81883390D01*
X91273333Y-81883390D02*
X91273333Y-82026247D01*
X91273333Y-82026247D02*
X91225714Y-82216723D01*
X91225714Y-82216723D02*
X91178095Y-82311961D01*
X91178095Y-82311961D02*
X91082857Y-82407200D01*
X91082857Y-82407200D02*
X90940000Y-82454819D01*
X90940000Y-82454819D02*
X90701905Y-82454819D01*
X92225714Y-82454819D02*
X91654286Y-82454819D01*
X91940000Y-82454819D02*
X91940000Y-81454819D01*
X91940000Y-81454819D02*
X91844762Y-81597676D01*
X91844762Y-81597676D02*
X91749524Y-81692914D01*
X91749524Y-81692914D02*
X91654286Y-81740533D01*
X74866666Y-67574819D02*
X74533333Y-67098628D01*
X74295238Y-67574819D02*
X74295238Y-66574819D01*
X74295238Y-66574819D02*
X74676190Y-66574819D01*
X74676190Y-66574819D02*
X74771428Y-66622438D01*
X74771428Y-66622438D02*
X74819047Y-66670057D01*
X74819047Y-66670057D02*
X74866666Y-66765295D01*
X74866666Y-66765295D02*
X74866666Y-66908152D01*
X74866666Y-66908152D02*
X74819047Y-67003390D01*
X74819047Y-67003390D02*
X74771428Y-67051009D01*
X74771428Y-67051009D02*
X74676190Y-67098628D01*
X74676190Y-67098628D02*
X74295238Y-67098628D01*
X75295238Y-67051009D02*
X75628571Y-67051009D01*
X75771428Y-67574819D02*
X75295238Y-67574819D01*
X75295238Y-67574819D02*
X75295238Y-66574819D01*
X75295238Y-66574819D02*
X75771428Y-66574819D01*
X76533333Y-67051009D02*
X76200000Y-67051009D01*
X76200000Y-67574819D02*
X76200000Y-66574819D01*
X76200000Y-66574819D02*
X76676190Y-66574819D01*
X77200000Y-66574819D02*
X77200000Y-66812914D01*
X76961905Y-66717676D02*
X77200000Y-66812914D01*
X77200000Y-66812914D02*
X77438095Y-66717676D01*
X77057143Y-67003390D02*
X77200000Y-66812914D01*
X77200000Y-66812914D02*
X77342857Y-67003390D01*
X77961905Y-66574819D02*
X77961905Y-66812914D01*
X77723810Y-66717676D02*
X77961905Y-66812914D01*
X77961905Y-66812914D02*
X78200000Y-66717676D01*
X77819048Y-67003390D02*
X77961905Y-66812914D01*
X77961905Y-66812914D02*
X78104762Y-67003390D01*
X80541905Y-92614819D02*
X80541905Y-91614819D01*
X80541905Y-91614819D02*
X80780000Y-91614819D01*
X80780000Y-91614819D02*
X80922857Y-91662438D01*
X80922857Y-91662438D02*
X81018095Y-91757676D01*
X81018095Y-91757676D02*
X81065714Y-91852914D01*
X81065714Y-91852914D02*
X81113333Y-92043390D01*
X81113333Y-92043390D02*
X81113333Y-92186247D01*
X81113333Y-92186247D02*
X81065714Y-92376723D01*
X81065714Y-92376723D02*
X81018095Y-92471961D01*
X81018095Y-92471961D02*
X80922857Y-92567200D01*
X80922857Y-92567200D02*
X80780000Y-92614819D01*
X80780000Y-92614819D02*
X80541905Y-92614819D01*
X81494286Y-91710057D02*
X81541905Y-91662438D01*
X81541905Y-91662438D02*
X81637143Y-91614819D01*
X81637143Y-91614819D02*
X81875238Y-91614819D01*
X81875238Y-91614819D02*
X81970476Y-91662438D01*
X81970476Y-91662438D02*
X82018095Y-91710057D01*
X82018095Y-91710057D02*
X82065714Y-91805295D01*
X82065714Y-91805295D02*
X82065714Y-91900533D01*
X82065714Y-91900533D02*
X82018095Y-92043390D01*
X82018095Y-92043390D02*
X81446667Y-92614819D01*
X81446667Y-92614819D02*
X82065714Y-92614819D01*
X78309580Y-89066666D02*
X78357200Y-89114285D01*
X78357200Y-89114285D02*
X78404819Y-89257142D01*
X78404819Y-89257142D02*
X78404819Y-89352380D01*
X78404819Y-89352380D02*
X78357200Y-89495237D01*
X78357200Y-89495237D02*
X78261961Y-89590475D01*
X78261961Y-89590475D02*
X78166723Y-89638094D01*
X78166723Y-89638094D02*
X77976247Y-89685713D01*
X77976247Y-89685713D02*
X77833390Y-89685713D01*
X77833390Y-89685713D02*
X77642914Y-89638094D01*
X77642914Y-89638094D02*
X77547676Y-89590475D01*
X77547676Y-89590475D02*
X77452438Y-89495237D01*
X77452438Y-89495237D02*
X77404819Y-89352380D01*
X77404819Y-89352380D02*
X77404819Y-89257142D01*
X77404819Y-89257142D02*
X77452438Y-89114285D01*
X77452438Y-89114285D02*
X77500057Y-89066666D01*
X78404819Y-88114285D02*
X78404819Y-88685713D01*
X78404819Y-88399999D02*
X77404819Y-88399999D01*
X77404819Y-88399999D02*
X77547676Y-88495237D01*
X77547676Y-88495237D02*
X77642914Y-88590475D01*
X77642914Y-88590475D02*
X77690533Y-88685713D01*
X100838095Y-92574819D02*
X100838095Y-93384342D01*
X100838095Y-93384342D02*
X100885714Y-93479580D01*
X100885714Y-93479580D02*
X100933333Y-93527200D01*
X100933333Y-93527200D02*
X101028571Y-93574819D01*
X101028571Y-93574819D02*
X101219047Y-93574819D01*
X101219047Y-93574819D02*
X101314285Y-93527200D01*
X101314285Y-93527200D02*
X101361904Y-93479580D01*
X101361904Y-93479580D02*
X101409523Y-93384342D01*
X101409523Y-93384342D02*
X101409523Y-92574819D01*
X102409523Y-93574819D02*
X101838095Y-93574819D01*
X102123809Y-93574819D02*
X102123809Y-92574819D01*
X102123809Y-92574819D02*
X102028571Y-92717676D01*
X102028571Y-92717676D02*
X101933333Y-92812914D01*
X101933333Y-92812914D02*
X101838095Y-92860533D01*
X112966666Y-67574819D02*
X112633333Y-67098628D01*
X112395238Y-67574819D02*
X112395238Y-66574819D01*
X112395238Y-66574819D02*
X112776190Y-66574819D01*
X112776190Y-66574819D02*
X112871428Y-66622438D01*
X112871428Y-66622438D02*
X112919047Y-66670057D01*
X112919047Y-66670057D02*
X112966666Y-66765295D01*
X112966666Y-66765295D02*
X112966666Y-66908152D01*
X112966666Y-66908152D02*
X112919047Y-67003390D01*
X112919047Y-67003390D02*
X112871428Y-67051009D01*
X112871428Y-67051009D02*
X112776190Y-67098628D01*
X112776190Y-67098628D02*
X112395238Y-67098628D01*
X113395238Y-67051009D02*
X113728571Y-67051009D01*
X113871428Y-67574819D02*
X113395238Y-67574819D01*
X113395238Y-67574819D02*
X113395238Y-66574819D01*
X113395238Y-66574819D02*
X113871428Y-66574819D01*
X114633333Y-67051009D02*
X114300000Y-67051009D01*
X114300000Y-67574819D02*
X114300000Y-66574819D01*
X114300000Y-66574819D02*
X114776190Y-66574819D01*
X115300000Y-66574819D02*
X115300000Y-66812914D01*
X115061905Y-66717676D02*
X115300000Y-66812914D01*
X115300000Y-66812914D02*
X115538095Y-66717676D01*
X115157143Y-67003390D02*
X115300000Y-66812914D01*
X115300000Y-66812914D02*
X115442857Y-67003390D01*
X116061905Y-66574819D02*
X116061905Y-66812914D01*
X115823810Y-66717676D02*
X116061905Y-66812914D01*
X116061905Y-66812914D02*
X116300000Y-66717676D01*
X115919048Y-67003390D02*
X116061905Y-66812914D01*
X116061905Y-66812914D02*
X116204762Y-67003390D01*
X88464819Y-96686666D02*
X87988628Y-97019999D01*
X88464819Y-97258094D02*
X87464819Y-97258094D01*
X87464819Y-97258094D02*
X87464819Y-96877142D01*
X87464819Y-96877142D02*
X87512438Y-96781904D01*
X87512438Y-96781904D02*
X87560057Y-96734285D01*
X87560057Y-96734285D02*
X87655295Y-96686666D01*
X87655295Y-96686666D02*
X87798152Y-96686666D01*
X87798152Y-96686666D02*
X87893390Y-96734285D01*
X87893390Y-96734285D02*
X87941009Y-96781904D01*
X87941009Y-96781904D02*
X87988628Y-96877142D01*
X87988628Y-96877142D02*
X87988628Y-97258094D01*
X87464819Y-96353332D02*
X87464819Y-95734285D01*
X87464819Y-95734285D02*
X87845771Y-96067618D01*
X87845771Y-96067618D02*
X87845771Y-95924761D01*
X87845771Y-95924761D02*
X87893390Y-95829523D01*
X87893390Y-95829523D02*
X87941009Y-95781904D01*
X87941009Y-95781904D02*
X88036247Y-95734285D01*
X88036247Y-95734285D02*
X88274342Y-95734285D01*
X88274342Y-95734285D02*
X88369580Y-95781904D01*
X88369580Y-95781904D02*
X88417200Y-95829523D01*
X88417200Y-95829523D02*
X88464819Y-95924761D01*
X88464819Y-95924761D02*
X88464819Y-96210475D01*
X88464819Y-96210475D02*
X88417200Y-96305713D01*
X88417200Y-96305713D02*
X88369580Y-96353332D01*
X88566666Y-68034819D02*
X88566666Y-68749104D01*
X88566666Y-68749104D02*
X88519047Y-68891961D01*
X88519047Y-68891961D02*
X88423809Y-68987200D01*
X88423809Y-68987200D02*
X88280952Y-69034819D01*
X88280952Y-69034819D02*
X88185714Y-69034819D01*
X89566666Y-69034819D02*
X88995238Y-69034819D01*
X89280952Y-69034819D02*
X89280952Y-68034819D01*
X89280952Y-68034819D02*
X89185714Y-68177676D01*
X89185714Y-68177676D02*
X89090476Y-68272914D01*
X89090476Y-68272914D02*
X88995238Y-68320533D01*
D11*
%TO.C,R4*%
X87074564Y-102847500D02*
X86620436Y-102847500D01*
X87074564Y-101377500D02*
X86620436Y-101377500D01*
%TO.C,C2*%
X84081252Y-104875000D02*
X83558748Y-104875000D01*
X84081252Y-103405000D02*
X83558748Y-103405000D01*
%TO.C,R2*%
X82015000Y-86132936D02*
X82015000Y-86587064D01*
X80545000Y-86132936D02*
X80545000Y-86587064D01*
%TO.C,R1*%
X84047064Y-82015000D02*
X83592936Y-82015000D01*
X84047064Y-80545000D02*
X83592936Y-80545000D01*
%TO.C,D1*%
X88980000Y-82685000D02*
X88980000Y-84955000D01*
X88980000Y-84955000D02*
X93040000Y-84955000D01*
X93040000Y-82685000D02*
X88980000Y-82685000D01*
%TO.C,D2*%
X78820000Y-92845000D02*
X78820000Y-95115000D01*
X78820000Y-95115000D02*
X82880000Y-95115000D01*
X82880000Y-92845000D02*
X78820000Y-92845000D01*
%TO.C,C1*%
X77135000Y-86415000D02*
X75265000Y-86415000D01*
X75265000Y-86415000D02*
X75265000Y-90500000D01*
X77135000Y-90500000D02*
X77135000Y-86415000D01*
%TO.C,U1*%
X101600000Y-93960000D02*
X98150000Y-93960000D01*
X101600000Y-93960000D02*
X103550000Y-93960000D01*
X101600000Y-99080000D02*
X99650000Y-99080000D01*
X101600000Y-99080000D02*
X103550000Y-99080000D01*
%TO.C,R3*%
X87095000Y-96292936D02*
X87095000Y-96747064D01*
X85625000Y-96292936D02*
X85625000Y-96747064D01*
%TO.C,J1*%
X91410000Y-66850000D02*
X99130000Y-66850000D01*
X91410000Y-68070000D02*
X92630000Y-68070000D01*
X91410000Y-75270000D02*
X91410000Y-66850000D01*
X92630000Y-68070000D02*
X92630000Y-73070000D01*
X92630000Y-72070000D02*
X97910000Y-72070000D01*
X92630000Y-73070000D02*
X91410000Y-73070000D01*
X92630000Y-73070000D02*
X92630000Y-75270000D01*
X92630000Y-75270000D02*
X91410000Y-75270000D01*
X93700000Y-68650000D02*
X94020000Y-68570000D01*
X93700000Y-72070000D02*
X93700000Y-68650000D01*
X93720000Y-75760000D02*
X94320000Y-75760000D01*
X94020000Y-68570000D02*
X94340000Y-68650000D01*
X94020000Y-72070000D02*
X93700000Y-72070000D01*
X94020000Y-75160000D02*
X93720000Y-75760000D01*
X94320000Y-75760000D02*
X94020000Y-75160000D01*
X94340000Y-68650000D02*
X94340000Y-72070000D01*
X94340000Y-72070000D02*
X94020000Y-72070000D01*
X95190000Y-73070000D02*
X95350000Y-73070000D01*
X96200000Y-68650000D02*
X96520000Y-68570000D01*
X96200000Y-72070000D02*
X96200000Y-68650000D01*
X96520000Y-68570000D02*
X96840000Y-68650000D01*
X96520000Y-72070000D02*
X96200000Y-72070000D01*
X96840000Y-68650000D02*
X96840000Y-72070000D01*
X96840000Y-72070000D02*
X96520000Y-72070000D01*
X97910000Y-68070000D02*
X97910000Y-73070000D01*
X97910000Y-73070000D02*
X99130000Y-73070000D01*
X97910000Y-75270000D02*
X97910000Y-73070000D01*
X99130000Y-66850000D02*
X99130000Y-75270000D01*
X99130000Y-68070000D02*
X97910000Y-68070000D01*
X99130000Y-75270000D02*
X97910000Y-75270000D01*
%TD*%
M02*
