%TF.GenerationSoftware,KiCad,Pcbnew,7.0.8*%
%TF.CreationDate,2023-10-19T22:14:58-07:00*%
%TF.ProjectId,Lab 2,4c616220-322e-46b6-9963-61645f706362,rev?*%
%TF.SameCoordinates,Original*%
%TF.FileFunction,Copper,L1,Top*%
%TF.FilePolarity,Positive*%
%FSLAX46Y46*%
G04 Gerber Fmt 4.6, Leading zero omitted, Abs format (unit mm)*
G04 Created by KiCad (PCBNEW 7.0.8) date 2023-10-19 22:14:58*
%MOMM*%
%LPD*%
G01*
G04 APERTURE LIST*
G04 Aperture macros list*
%AMRoundRect*
0 Rectangle with rounded corners*
0 $1 Rounding radius*
0 $2 $3 $4 $5 $6 $7 $8 $9 X,Y pos of 4 corners*
0 Add a 4 corners polygon primitive as box body*
4,1,4,$2,$3,$4,$5,$6,$7,$8,$9,$2,$3,0*
0 Add four circle primitives for the rounded corners*
1,1,$1+$1,$2,$3*
1,1,$1+$1,$4,$5*
1,1,$1+$1,$6,$7*
1,1,$1+$1,$8,$9*
0 Add four rect primitives between the rounded corners*
20,1,$1+$1,$2,$3,$4,$5,0*
20,1,$1+$1,$4,$5,$6,$7,0*
20,1,$1+$1,$6,$7,$8,$9,0*
20,1,$1+$1,$8,$9,$2,$3,0*%
G04 Aperture macros list end*
%TA.AperFunction,SMDPad,CuDef*%
%ADD10RoundRect,0.250000X0.350000X0.450000X-0.350000X0.450000X-0.350000X-0.450000X0.350000X-0.450000X0*%
%TD*%
%TA.AperFunction,SMDPad,CuDef*%
%ADD11RoundRect,0.250000X0.337500X0.475000X-0.337500X0.475000X-0.337500X-0.475000X0.337500X-0.475000X0*%
%TD*%
%TA.AperFunction,SMDPad,CuDef*%
%ADD12RoundRect,0.250000X-0.450000X0.350000X-0.450000X-0.350000X0.450000X-0.350000X0.450000X0.350000X0*%
%TD*%
%TA.AperFunction,SMDPad,CuDef*%
%ADD13RoundRect,0.250001X-0.462499X-0.624999X0.462499X-0.624999X0.462499X0.624999X-0.462499X0.624999X0*%
%TD*%
%TA.AperFunction,SMDPad,CuDef*%
%ADD14RoundRect,0.250000X-0.425000X0.537500X-0.425000X-0.537500X0.425000X-0.537500X0.425000X0.537500X0*%
%TD*%
%TA.AperFunction,SMDPad,CuDef*%
%ADD15RoundRect,0.150000X-0.825000X-0.150000X0.825000X-0.150000X0.825000X0.150000X-0.825000X0.150000X0*%
%TD*%
%TA.AperFunction,ComponentPad*%
%ADD16RoundRect,0.250000X-0.600000X-0.750000X0.600000X-0.750000X0.600000X0.750000X-0.600000X0.750000X0*%
%TD*%
%TA.AperFunction,ComponentPad*%
%ADD17O,1.700000X2.000000*%
%TD*%
%TA.AperFunction,ViaPad*%
%ADD18C,0.800000*%
%TD*%
%TA.AperFunction,Conductor*%
%ADD19C,0.250000*%
%TD*%
%TA.AperFunction,Conductor*%
%ADD20C,0.500000*%
%TD*%
G04 APERTURE END LIST*
D10*
%TO.P,R4,1*%
%TO.N,/pin_3*%
X87847500Y-102112500D03*
%TO.P,R4,2*%
%TO.N,Net-(D2-A)*%
X85847500Y-102112500D03*
%TD*%
D11*
%TO.P,C2,1*%
%TO.N,Net-(U1-CV)*%
X84857500Y-104140000D03*
%TO.P,C2,2*%
%TO.N,GND*%
X82782500Y-104140000D03*
%TD*%
D12*
%TO.P,R2,1*%
%TO.N,/pin_7*%
X81280000Y-85360000D03*
%TO.P,R2,2*%
%TO.N,/pin_2*%
X81280000Y-87360000D03*
%TD*%
D10*
%TO.P,R1,1*%
%TO.N,+9V*%
X84820000Y-81280000D03*
%TO.P,R1,2*%
%TO.N,/pin_7*%
X82820000Y-81280000D03*
%TD*%
D13*
%TO.P,D1,1,K*%
%TO.N,Net-(D1-K)*%
X89952500Y-83820000D03*
%TO.P,D1,2,A*%
%TO.N,+9V*%
X92927500Y-83820000D03*
%TD*%
%TO.P,D2,1,K*%
%TO.N,GND*%
X79792500Y-93980000D03*
%TO.P,D2,2,A*%
%TO.N,Net-(D2-A)*%
X82767500Y-93980000D03*
%TD*%
D14*
%TO.P,C1,1*%
%TO.N,/pin_2*%
X76200000Y-87462500D03*
%TO.P,C1,2*%
%TO.N,GND*%
X76200000Y-90337500D03*
%TD*%
D15*
%TO.P,U1,1,GND*%
%TO.N,GND*%
X99125000Y-94615000D03*
%TO.P,U1,2,TR*%
%TO.N,/pin_2*%
X99125000Y-95885000D03*
%TO.P,U1,3,Q*%
%TO.N,/pin_3*%
X99125000Y-97155000D03*
%TO.P,U1,4,R*%
%TO.N,+9V*%
X99125000Y-98425000D03*
%TO.P,U1,5,CV*%
%TO.N,Net-(U1-CV)*%
X104075000Y-98425000D03*
%TO.P,U1,6,THR*%
%TO.N,/pin_2*%
X104075000Y-97155000D03*
%TO.P,U1,7,DIS*%
%TO.N,/pin_7*%
X104075000Y-95885000D03*
%TO.P,U1,8,VCC*%
%TO.N,+9V*%
X104075000Y-94615000D03*
%TD*%
D12*
%TO.P,R3,1*%
%TO.N,Net-(D1-K)*%
X86360000Y-95520000D03*
%TO.P,R3,2*%
%TO.N,/pin_3*%
X86360000Y-97520000D03*
%TD*%
D16*
%TO.P,J1,1,Pin_1*%
%TO.N,+9V*%
X94020000Y-73660000D03*
D17*
%TO.P,J1,2,Pin_2*%
%TO.N,GND*%
X96520000Y-73660000D03*
%TD*%
D18*
%TO.N,GND*%
X78740000Y-96520000D03*
X81280000Y-101600000D03*
X77637500Y-91440000D03*
X96520000Y-93980000D03*
X96520000Y-76200000D03*
%TD*%
D19*
%TO.N,/pin_2*%
X76200000Y-86025000D02*
X81970000Y-80255000D01*
X76200000Y-87462500D02*
X76200000Y-86025000D01*
D20*
%TO.N,+9V*%
X90870000Y-106680000D02*
X99125000Y-98425000D01*
X81280000Y-106680000D02*
X90870000Y-106680000D01*
X73660000Y-83820000D02*
X73660000Y-99060000D01*
X80194326Y-79825674D02*
X77654326Y-79825674D01*
X81280000Y-78740000D02*
X80194326Y-79825674D01*
X73660000Y-99060000D02*
X81280000Y-106680000D01*
X86360000Y-79740000D02*
X86360000Y-78740000D01*
X86360000Y-78740000D02*
X81280000Y-78740000D01*
X84820000Y-81280000D02*
X86360000Y-79740000D01*
X77654326Y-79825674D02*
X73660000Y-83820000D01*
D19*
%TO.N,Net-(U1-CV)*%
X87433174Y-104140000D02*
X84857500Y-104140000D01*
X88948198Y-102624976D02*
X87433174Y-104140000D01*
D20*
%TO.N,+9V*%
X102300000Y-101600000D02*
X99125000Y-98425000D01*
X109220000Y-96520000D02*
X109220000Y-99060000D01*
X107315000Y-94615000D02*
X109220000Y-96520000D01*
X106680000Y-101600000D02*
X102300000Y-101600000D01*
X109220000Y-99060000D02*
X106680000Y-101600000D01*
X104075000Y-94615000D02*
X107315000Y-94615000D01*
%TO.N,GND*%
X96520000Y-73660000D02*
X96520000Y-76200000D01*
X97155000Y-94615000D02*
X96520000Y-93980000D01*
X99125000Y-94615000D02*
X97155000Y-94615000D01*
X82782500Y-103102500D02*
X81280000Y-101600000D01*
X82782500Y-104140000D02*
X82782500Y-103102500D01*
X79792500Y-93980000D02*
X79792500Y-95467500D01*
X79792500Y-95467500D02*
X78740000Y-96520000D01*
X76535000Y-90337500D02*
X77637500Y-91440000D01*
D19*
X76200000Y-90337500D02*
X76535000Y-90337500D01*
D20*
%TO.N,+9V*%
X92927500Y-83820000D02*
X92927500Y-74752500D01*
X92927500Y-74752500D02*
X94020000Y-73660000D01*
D19*
%TO.N,GND*%
X79792500Y-93980000D02*
X79342500Y-94430000D01*
X99888248Y-94615000D02*
X99125000Y-94615000D01*
X82332500Y-103690000D02*
X82782500Y-104140000D01*
%TO.N,/pin_2*%
X101830000Y-95885000D02*
X99125000Y-95885000D01*
X83745000Y-80591826D02*
X83408174Y-80255000D01*
X91440000Y-84233172D02*
X91440000Y-83406828D01*
X103100000Y-97155000D02*
X101830000Y-95885000D01*
X83745000Y-81818174D02*
X83745000Y-80591826D01*
X81280000Y-87360000D02*
X88313172Y-87360000D01*
X90653172Y-82620000D02*
X84546826Y-82620000D01*
X91440000Y-83406828D02*
X90653172Y-82620000D01*
X81177500Y-87462500D02*
X81280000Y-87360000D01*
X83408174Y-80255000D02*
X81970000Y-80255000D01*
X88313172Y-87360000D02*
X91440000Y-84233172D01*
X84546826Y-82620000D02*
X83745000Y-81818174D01*
X99125000Y-95885000D02*
X89805000Y-95885000D01*
X104075000Y-97155000D02*
X103100000Y-97155000D01*
X89805000Y-95885000D02*
X81280000Y-87360000D01*
%TO.N,/pin_3*%
X92805000Y-97155000D02*
X99125000Y-97155000D01*
X99125000Y-97155000D02*
X100138148Y-97155000D01*
X86360000Y-97520000D02*
X86360000Y-100625000D01*
X86360000Y-100625000D02*
X87847500Y-102112500D01*
X87847500Y-102112500D02*
X92805000Y-97155000D01*
X86616250Y-97776250D02*
X86360000Y-97520000D01*
D20*
%TO.N,+9V*%
X92927500Y-83820000D02*
X90387500Y-81280000D01*
X90387500Y-81280000D02*
X84820000Y-81280000D01*
D19*
%TO.N,Net-(U1-CV)*%
X101785000Y-98425000D02*
X101600000Y-98610000D01*
X92796396Y-97800000D02*
X88948198Y-101648198D01*
X101600000Y-98610000D02*
X100790000Y-97800000D01*
X88948198Y-101648198D02*
X88948198Y-102624976D01*
X104075000Y-98425000D02*
X101785000Y-98425000D01*
X100790000Y-97800000D02*
X92796396Y-97800000D01*
%TO.N,/pin_7*%
X105565178Y-96400178D02*
X105565178Y-97945178D01*
X79805000Y-86585430D02*
X81030430Y-85360000D01*
X79805000Y-88134570D02*
X79805000Y-86585430D01*
X81280000Y-85360000D02*
X81710000Y-84930000D01*
X85746826Y-96520000D02*
X83820000Y-94593174D01*
X105050000Y-95885000D02*
X105565178Y-96400178D01*
X81280000Y-85360000D02*
X81280000Y-82820000D01*
X105565178Y-97945178D02*
X105420000Y-97800000D01*
X103100000Y-95885000D02*
X104075000Y-95885000D01*
X100146396Y-96520000D02*
X85746826Y-96520000D01*
X83820000Y-94593174D02*
X83820000Y-92149570D01*
X81030430Y-85360000D02*
X81280000Y-85360000D01*
X83820000Y-92149570D02*
X79805000Y-88134570D01*
X81280000Y-82820000D02*
X82820000Y-81280000D01*
X104075000Y-95885000D02*
X105050000Y-95885000D01*
X105420000Y-97800000D02*
X101426396Y-97800000D01*
X101426396Y-97800000D02*
X100146396Y-96520000D01*
%TO.N,Net-(D1-K)*%
X80591826Y-88285000D02*
X80255000Y-87948174D01*
X86360000Y-95520000D02*
X85590000Y-94750000D01*
X80666826Y-86360000D02*
X87412500Y-86360000D01*
X81165000Y-88285000D02*
X80591826Y-88285000D01*
X85590000Y-92710000D02*
X81165000Y-88285000D01*
X87412500Y-86360000D02*
X89952500Y-83820000D01*
X80255000Y-86771826D02*
X80666826Y-86360000D01*
X80255000Y-87948174D02*
X80255000Y-86771826D01*
X85590000Y-94750000D02*
X85590000Y-92710000D01*
%TO.N,Net-(D2-A)*%
X82767500Y-93980000D02*
X82767500Y-99032500D01*
X86360000Y-101600000D02*
X85847500Y-102112500D01*
X82767500Y-99032500D02*
X85847500Y-102112500D01*
%TD*%
M02*
